<svg id="visual" viewBox="0 0 900 600" width="900" height="600" xmlns="http://www.w3.org/2000/svg" xmlns:xlink="http://www.w3.org/1999/xlink" version="1.1"><rect width="900" height="600" fill="#001829"></rect><g><g transform="translate(743 309)"><path d="M0 -71.4L61.9 -35.7L61.9 35.7L0 71.4L-61.9 35.7L-61.9 -35.7Z" fill="#194a60"></path></g><g transform="translate(569 428)"><path d="M0 -37L32 -18.5L32 18.5L0 37L-32 18.5L-32 -18.5Z" fill="#194a60"></path></g><g transform="translate(203 428)"><path d="M0 -53L45.9 -26.5L45.9 26.5L0 53L-45.9 26.5L-45.9 -26.5Z" fill="#194a60"></path></g><g transform="translate(455 311)"><path d="M0 -32L27.7 -16L27.7 16L0 32L-27.7 16L-27.7 -16Z" fill="#194a60"></path></g><g transform="translate(106 287)"><path d="M0 -68L58.9 -34L58.9 34L0 68L-58.9 34L-58.9 -34Z" fill="#194a60"></path></g><g transform="translate(306 82)"><path d="M0 -42L36.4 -21L36.4 21L0 42L-36.4 21L-36.4 -21Z" fill="#194a60"></path></g><g transform="translate(788 577)"><path d="M0 -46L39.8 -23L39.8 23L0 46L-39.8 23L-39.8 -23Z" fill="#194a60"></path></g><g transform="translate(93 52)"><path d="M0 -50L43.3 -25L43.3 25L0 50L-43.3 25L-43.3 -25Z" fill="#194a60"></path></g></g></svg>